<svg id="Layer_1" data-name="Layer 1" xmlns="http://www.w3.org/2000/svg" viewBox="0 0 100 99.79"><defs><style>.cls-1{fill:#444;}</style></defs><title>facebook</title><path class="cls-1" d="M107,12.65a5.13,5.13,0,0,1,3.79,1.46,6.6,6.6,0,0,1,1.75,4.08v88.63a5.59,5.59,0,0,1-1.75,4.08,4.34,4.34,0,0,1-3.79,1.46H81.6V73.87H94.42l2-15.16H81.6V49.09q0-3.79,1.46-5.54t5.83-1.75h7.87V28.1a85.22,85.22,0,0,0-11.37-.58q-9,0-14.29,5.25T65.85,47.63V58.71H52.73V73.87H65.85v38.48H18a5.13,5.13,0,0,1-3.79-1.46,6.6,6.6,0,0,1-1.75-4.08V18.19a5.59,5.59,0,0,1,1.75-4.08A4.34,4.34,0,0,1,18,12.65Z" transform="translate(-12.5 -12.6)"/></svg>