<svg id="Layer_1" data-name="Layer 1" xmlns="http://www.w3.org/2000/svg" viewBox="0 0 115.95 77.3"><defs><style>.cls-1{fill:#444;}</style></defs><title>money</title><path class="cls-1" d="M50.73,78.75H74V72.94H66.42v-27h-7l-9,8.43L55.09,59a14.49,14.49,0,0,0,3.49-3.49h0V72.94H50.73Zm31.09-15.4a24.87,24.87,0,0,1-1.45,8.43,73.41,73.41,0,0,1-3.49,8.14,13.31,13.31,0,0,1-6.1,6.1,22,22,0,0,1-8.43,2.32A12.49,12.49,0,0,1,54.22,86a22.85,22.85,0,0,1-6.1-6.1,31.55,31.55,0,0,1-3.78-8.14,22.61,22.61,0,0,1-1.16-8.43,79.06,79.06,0,0,1,1.16-8.43,17.53,17.53,0,0,1,3.78-8.14,45.39,45.39,0,0,1,6.1-6.1,11.32,11.32,0,0,1,8.14-2.32,18.69,18.69,0,0,1,8.43,2.32,18.34,18.34,0,0,1,6.1,6.1,24.61,24.61,0,0,1,3.49,8.14Q81.24,59,81.83,63.35Zm30.8,15.4V47.95a14.15,14.15,0,0,1-10.75-4.65,16.45,16.45,0,0,1-4.65-10.75H27.77A14.15,14.15,0,0,1,23.12,43.3a16.45,16.45,0,0,1-10.75,4.65v30.8A14.15,14.15,0,0,1,23.12,83.4a16.45,16.45,0,0,1,4.65,10.75H97.23a14.15,14.15,0,0,1,4.65-10.75A16.45,16.45,0,0,1,112.63,78.75Zm7.85-50.27V98.22a3.61,3.61,0,0,1-1.16,2.62,3.94,3.94,0,0,1-2.91,1.16H8.3a3.61,3.61,0,0,1-2.62-1.16,3.61,3.61,0,0,1-1.16-2.62V28.48a3.61,3.61,0,0,1,1.16-2.62A3.61,3.61,0,0,1,8.3,24.7h108.1a3.94,3.94,0,0,1,2.91,1.16A3.61,3.61,0,0,1,120.47,28.48Z" transform="translate(-4.53 -24.7)"/></svg>