<svg id="Layer_1" data-name="Layer 1" xmlns="http://www.w3.org/2000/svg" viewBox="0 0 98.25 79.83"><defs><style>.cls-1{fill:#444;}</style></defs><title>twitter</title><path class="cls-1" d="M115.5,32.08A38.94,38.94,0,0,1,105.17,42.4a9.79,9.79,0,0,1,.28,2.79,54.36,54.36,0,0,1-2.51,16.19,61,61,0,0,1-7.26,15.35A63.7,63.7,0,0,1,84.24,89.85a49.63,49.63,0,0,1-15.91,9.21,58.39,58.39,0,0,1-20.1,3.35,55,55,0,0,1-31-9.21,38.3,38.3,0,0,0,4.75.28,40.82,40.82,0,0,0,25.12-8.37,20,20,0,0,1-11.72-4.19,22.17,22.17,0,0,1-7.26-9.77,32,32,0,0,0,3.91.28,16.66,16.66,0,0,0,5.3-.84,19,19,0,0,1-11.44-7,21.35,21.35,0,0,1-4.75-12.84h0a21.91,21.91,0,0,0,9.21,2.51A20.9,20.9,0,0,1,23.67,46a17.06,17.06,0,0,1-2.23-9.49,21.73,21.73,0,0,1,2.51-10.33A55.7,55.7,0,0,0,42.37,41.29a55.74,55.74,0,0,0,23.17,6.14A21.91,21.91,0,0,1,65,42.68a20,20,0,0,1,20.1-20.1A19.17,19.17,0,0,1,99.87,29a46.49,46.49,0,0,0,12.84-4.75,19,19,0,0,1-8.93,10.89A39.07,39.07,0,0,0,115.5,32.08Z" transform="translate(-17.25 -22.59)"/></svg>