<svg xmlns="http://www.w3.org/2000/svg" viewBox="99.738 -659.987 670.404 225.261">
  <defs>
    <style>
      .cls-1 {
        fill: #f60;
        stroke: #000;
        stroke-width: 3.5px;
      }

      .cls-2 {
        fill: #fff;
      }
    </style>
  </defs>
  <g id="Group_4" data-name="Group 4" transform="translate(174 -662)">
    <g id="Symbol_3_1" data-name="Symbol 3 – 1">
      <path id="Path_1" data-name="Path 1" d="M968,1014.273l164.149-198.705,315.352-19.492-74.2,64.737,252.84-13.216L1574.958,924.7l-385.6,56.729,110.005-131.987-114.635,7.711-12.94,15.495,95.889-5.186L1235.184,904.8l-92.279,5.733-23.194,26.456,97.38-8.493-45.3,54.922Z" transform="translate(-1030 -787)"/>
      <path id="Path_15" data-name="Path 15" class="cls-1" d="M968,1014.273l164.149-198.705,315.352-19.492-74.2,64.737,252.84-13.216L1574.958,924.7l-385.6,56.729,110.005-131.987-114.635,7.711-12.94,15.495,95.889-5.186L1235.184,904.8l-92.279,5.733-23.194,26.456,97.38-8.493-45.3,54.922Z" transform="translate(-1038 -792)"/>
      <g id="Symbol_2_3" data-name="Symbol 2 – 3" transform="translate(-982.129 40.766)">
        <g id="Group_3" data-name="Group 3" transform="translate(-48 -111)">
          <path id="Path_3" data-name="Path 3" d="M1405.614,151.591l36.367-2.017-17.64,62.529-25.746,4.522,3.912-12.067-8.17,1.359-7.159,12.935-25.841,4.373Z"/>
        </g>
        <path id="Path_12" data-name="Path 12" d="M475.581,238.816s18.928-21.115-21.27-16.178c-19.215,2.36-28.9,10.7-32.543,18.186-4.084,8.6-.07,14.484,10.257,16.895,1.218.284,9.029,2.692,9.12,2.989.794,3.96-6.076,11.747-9.12,12.53-7.1,1.824,1.784-11.77,1.784-11.77l-22.918,2.805s-12.913,19.77,1.453,20.651c33.3,1.467,54.233-17.751,54.478-29.777-1.427-11.557-15.676-11.221-20.766-13.483-2.426-1.064,2.227-8.12,6.489-9.144,7.578-2.8,0,8.3,0,8.3Z" transform="translate(979 -187)"/>
        <path id="Path_14" data-name="Path 14" d="M1314.1,155.925,1293.129,237.4l31-5.375,21.7-39.541-8,37.109,30.922-5.505,43.391-73.235-24.468,1.127-26.788,46.3,15.258-45.707-26.246,1.076-26.5,49.148,15.293-48.246Z" transform="translate(-64 -110)"/>
        <path id="Path_3-2" data-name="Path 3" class="cls-2" d="M1405.614,151.591l36.367-2.017-17.64,62.529-25.746,4.522,3.912-12.067-8.17,1.359-7.159,12.935-25.841,4.373Z" transform="translate(-53 -114)"/>
        <path id="Path_13" data-name="Path 13" d="M-436.447,198.874c-.943-.067-24.686.839-24.686.839l-32.346,55.241,25.063-4.777L-454.43,227.3l6.187-.279-13.14,22.053,24.937-4.326,32.2-47.516-25.226.975-11.632,17.608h-6.52Z" transform="translate(1935 -165)"/>
        <path id="Path_10" data-name="Path 10" class="cls-2" d="M475.581,238.816s18.928-21.115-21.27-16.178c-19.215,2.36-28.9,10.7-32.543,18.186-4.084,8.6-.07,14.484,10.257,16.895,1.218.284,9.029,2.692,9.12,2.989.794,3.96-6.076,11.747-9.12,12.53-7.1,1.824,1.784-11.77,1.784-11.77l-22.918,2.805s-12.913,19.77,1.453,20.651c33.3,1.467,54.233-17.751,54.478-29.777-1.427-11.557-15.676-11.221-20.766-13.483-2.426-1.064,2.227-8.12,6.489-9.144,7.578-2.8,0,8.3,0,8.3Z" transform="translate(974 -190)"/>
        <path id="Path_9" data-name="Path 9" class="cls-2" d="M-436.447,198.874c-.943-.067-24.686.839-24.686.839l-32.346,55.241,25.063-4.777L-454.43,227.3l6.187-.279-13.14,22.053,24.937-4.326,32.2-47.516-25.226.975-11.632,17.608h-6.52Z" transform="translate(1930 -168)"/>
        <path id="Path_11" data-name="Path 11" class="cls-2" d="M1314.1,155.925,1293.129,237.4l31-5.375,21.7-39.541-8,37.109,30.922-5.505,43.391-73.235-24.468,1.127-26.788,46.3,15.258-45.707-26.246,1.076-26.5,49.148,15.293-48.246Z" transform="translate(-69 -113)"/>
        <path id="Path_4" data-name="Path 4" d="M1400.264,192.863l7.8-1.065,7.892-23.307Z" transform="translate(-53 -114)"/>
      </g>
    </g>
  </g>
</svg>
