<svg version="1" xmlns="http://www.w3.org/2000/svg" width="1788" height="1788" viewBox="0 0 1341.000000 1341.000000"><path d="M653.9 465c-174.6 10.8-318 19.9-318.6 20.1C333.9 485.6-.2 890.2.4 890.7c.2.2 6.5-.5 13.9-1.6 18.3-2.8 17.6-2.9 13.3 2.4-3.4 4.1-3.5 4.5-1.6 4.5s406.4-61 406.6-61.4c.1 0 20.5-24.8 45.3-54.9 24.9-30.2 45-55.1 44.8-55.4-.3-.2-4.7 0-9.8.5-5.2.5-9.6.8-9.8.6-.1-.1 2.5-3.6 5.9-7.6 4.9-5.8 5.8-7.3 4.3-7.5-1-.2-39.4 3-85.3 7.1-45.9 4-83.7 7.2-83.8 7-.2-.1 6.4-8.1 14.8-17.6l15.2-17.3 6.1-.7c3.4-.3 45-3 92.5-5.9l86.3-5.3 32.5-37.3c17.8-20.4 32.4-37.5 32.4-37.9 0-.4-4.6-.4-10.2 0l-10.3.7 3-3.3c1.6-1.8 4.5-5 6.4-7 1.9-2.1 3.3-4 3-4.3-.3-.2-37.4 1.6-82.5 4-45 2.5-83.2 4.5-84.7 4.5-2.7 0-2.6-.1 3.5-7.5 4-4.8 7-7.5 8.3-7.5 1.1 0 45.2-2.9 97.9-6.5 52.8-3.5 96.1-6.3 96.3-6.1.2.2-47.4 57.6-105.8 127.5-58.3 70-105.8 127.5-105.5 127.8.5.5 15.9-1.4 27.6-3.4l3.5-.6-3.9 4.7c-2.1 2.6-3.7 4.9-3.5 5.1.2.2 173.9-25.2 385.9-56.4l385.5-56.6 51.2-77c28.2-42.4 51.3-77.4 51.3-77.8 0-.4-4.1-.5-9.2-.1-7.7.6-9 .5-8.3-.7.5-.8 2.6-4 4.8-7.2 2.1-3.2 3.7-6 3.5-6.1-.1-.2-105.4 5.3-233.8 12-128.4 6.8-235.7 12.2-238.3 12.1l-4.8-.2 64.1-55.9c35.2-30.7 64.3-56.2 64.6-56.7.3-.5-4.6-.6-10.8-.3l-11.3.6 5.5-4.8c3-2.7 6.8-6.1 8.5-7.6l3-2.7H975c-1.9.1-146.4 9-321.1 19.9zm580.5 118.2c-.4.7-3.1 4.7-6 8.8-2.8 4.1-16.7 24.6-30.9 45.5-14.1 20.9-25.9 38.2-26.1 38.4-.4.4-48.8 9-49.1 8.7-.1-.1 17.7-30.3 23.9-40.4l2-3.2h-12.7l-13.3 21.7c-7.3 12-13.6 22.4-14 23.1-1 1.6-50.5 11.3-49.9 9.8.3-.6 5.1-9 10.8-18.7 5.7-9.7 19.9-33.9 31.4-53.7l21-36 5-.6c2.8-.3 13.9-.8 24.8-1.2l19.9-.6-10 14.9c-14.1 21.1-13.6 19.3-5.7 19.3h6.6l11.5-17.5c6.3-9.6 11.6-17.6 11.7-17.6.4-.3 30.3-1.5 40-1.7 7.6-.2 9.7.1 9.1 1zm-158.5 4.8c10.8 2 16.1 6.7 16.1 14.1 0 3.8-4.9 14.8-7.6 17-1.4 1.1-33.1 4.7-43.2 4.9h-3.2l3-5.3c3.3-5.9 3.9-10.4 1.4-11.4-6.5-2.5-21.5 11.8-19.1 18.1.3.8 5 2.4 11.4 3.9 17.6 4.1 24.3 7.9 28.5 16.1 3.3 6.3 2.9 12.1-1.5 20.8-8 16.4-28.6 31.6-53.3 39.6-13.8 4.5-26.2 6.5-41.9 6.6-19.3.1-22.5-1.7-22.5-12.7 0-7.6 6.5-25 10.2-27.4 1.2-.7 43.9-6.3 44.5-5.8.2.1-1.5 3.6-3.7 7.9-5.9 11.4-5.3 16.9 1.6 15.2 5.7-1.5 18.4-17.9 18.4-23.8 0-1.3-2.6-2.5-11.7-5.4-17.6-5.4-19.7-6.3-23.6-9.5-14.5-11.9-4.4-36.3 20.8-50.4 10.7-6 29-11.1 46.5-12.8 7.8-.8 24-.6 28.9.3zm-114.3 7.7c-.9 2.9-7.6 26.7-21.6 76.3-7.2 25.5-13.2 46.6-13.4 46.7-.5.6-50.1 9.2-50.4 8.8-.2-.2 1.3-5.4 3.3-11.5 2-6.1 3.5-11.3 3.2-11.6-.2-.3-3.9.1-8.1.8l-7.7 1.3-7.2 13-7.2 12.9-24.9 4.3c-13.8 2.3-25.2 4.1-25.4 3.9-.2-.3 19.3-32.4 43.5-71.4l43.8-70.9 35.5-2c19.5-1.1 35.9-2.1 36.3-2.2.5 0 .6.7.3 1.6zm-93.3 6.5c-1.1 1.8-20.5 34.5-43.1 72.7-22.7 38.2-41.3 69.6-41.5 69.7-.4.4-61.1 11.4-61.3 11.1-.1-.1 1.6-8.3 3.7-18.2 2.2-9.9 5.5-25.4 7.5-34.5 1.9-9.1 3.8-17.4 4.1-18.5 1.2-4.6-2.4 1.7-22.3 38-11.4 20.9-20.8 38.1-20.8 38.1-.3.6-60.7 10.6-61.1 10.3-.3-.4 40.2-160.4 41-161.6.2-.4 48-3 48.3-2.7.2.1-6.2 21-14.3 46.4-8 25.4-14.4 46.4-14.2 46.6.2.3 6.2-10.2 13.2-23.3 7-13.1 18.6-34.6 25.7-47.9l13-24.1 25.6-.9c14.2-.6 25.9-.9 26.1-.8.1.2-6.3 19.7-14.3 43.5-8.1 23.8-14.5 43.7-14.3 44.2.3.9 9.5-14.8 39.8-67.5l12.4-21.7 5.5-.2c3-.1 11.4-.5 18.5-.8 7.2-.4 15.6-.8 18.8-.9l5.9-.2-1.9 3.2z"/><path d="M893.9 656.3c-8.6 13.3-15.3 24.3-14.9 24.5 1 .4 15-1.5 15.5-2 .9-.9 16.3-46.8 15.7-46.8-.4 0-7.7 10.9-16.3 24.3z"/></svg>